; NON-PLATED HOLES START AT T1
; THROUGH (PLATED) HOLES START AT T100
M48
INCH
T1C0.086614
T100C0.030000
T101C0.038333
T102C0.038000
T103C0.046111
T104C0.038361
T105C0.035000
T106C0.038306
%
T1
X000901Y001340
X027901Y001340
X027901Y024340
X000901Y024340
T100
X007901Y020340
X008903Y020340
T101
X015914Y003313
X026901Y014340
X009314Y022313
X012914Y003313
X010314Y022313
X021914Y022313
X014314Y022313
X019914Y022313
X016914Y003313
X021914Y003313
X017313Y022313
X012314Y022313
X017913Y003313
X024914Y022313
X016314Y022313
X008313Y022313
X025914Y022313
X025914Y003313
X026901Y013347
X011314Y022313
X013314Y022313
X018914Y003313
X018914Y022313
X023914Y022313
X022913Y003313
X020914Y003313
X020914Y022313
X015314Y022313
X024914Y003313
X023914Y003313
X014914Y003313
T102
X002906Y016340
X002906Y015340
X002906Y017340
X014906Y016340
X006906Y018340
X005906Y020340
X020906Y016340
X014906Y015340
X010906Y017340
X017906Y017340
X014906Y018340
X010906Y016340
X020906Y015340
X002906Y018340
X017906Y016340
X010906Y015340
X010906Y018340
X004906Y020340
X006906Y017340
X003906Y020340
X006906Y015340
X006906Y016340
X020906Y017340
X017906Y015340
X014906Y017340
T103
X019897Y011330
X019897Y009330
X019897Y008330
X019897Y010330
T104
X026901Y012355
X022913Y022313
X025901Y012355
X025901Y014340
X025901Y013347
T105
X021906Y020340
X017906Y020340
T106
X011914Y003313
X013914Y003313
T00
M30
