G04 MADE WITH FRITZING*
G04 WWW.FRITZING.ORG*
G04 DOUBLE SIDED*
G04 HOLES PLATED*
G04 CONTOUR ON CENTER OF CONTOUR VECTOR*
%ASAXBY*%
%FSLAX23Y23*%
%MOIN*%
%OFA0B0*%
%SFA1.0B1.0*%
%ADD10C,0.066111*%
%ADD11C,0.066139*%
%ADD12C,0.066083*%
%ADD13C,0.073889*%
%ADD14C,0.075000*%
%ADD15C,0.070000*%
%ADD16C,0.078000*%
%ADD17C,0.024000*%
%LNCOPPER0*%
G90*
G70*
G54D10*
X2191Y331D03*
X2291Y331D03*
X2391Y331D03*
X2491Y331D03*
X2591Y331D03*
X1731Y2231D03*
X1631Y2231D03*
X1531Y2231D03*
X1431Y2231D03*
X1331Y2231D03*
X1231Y2231D03*
X1131Y2231D03*
X1031Y2231D03*
X931Y2231D03*
X831Y2231D03*
X2591Y2231D03*
X2491Y2231D03*
X2391Y2231D03*
G54D11*
X2291Y2231D03*
G54D10*
X2191Y2231D03*
X2091Y2231D03*
X1991Y2231D03*
X1891Y2231D03*
X1291Y331D03*
G54D12*
X1191Y331D03*
X1391Y331D03*
G54D10*
X1491Y331D03*
X1591Y331D03*
X1691Y331D03*
X1791Y331D03*
X1891Y331D03*
X2091Y331D03*
X2690Y1434D03*
G54D11*
X2590Y1434D03*
G54D10*
X2690Y1335D03*
G54D11*
X2590Y1335D03*
X2690Y1236D03*
X2590Y1236D03*
G54D13*
X1990Y1133D03*
X1990Y1033D03*
X1990Y933D03*
X1990Y833D03*
G54D14*
X1791Y2034D03*
X2191Y2034D03*
G54D15*
X790Y2034D03*
X890Y2034D03*
G54D16*
X2091Y1534D03*
X2091Y1634D03*
X2091Y1734D03*
X1791Y1534D03*
X1791Y1634D03*
X1791Y1734D03*
X1091Y1534D03*
X1091Y1634D03*
X1091Y1734D03*
X1091Y1834D03*
X691Y1534D03*
X691Y1634D03*
X691Y1734D03*
X691Y1834D03*
X291Y1534D03*
X291Y1634D03*
X291Y1734D03*
X291Y1834D03*
X1491Y1534D03*
X1491Y1634D03*
X1491Y1734D03*
X1491Y1834D03*
X391Y2034D03*
X491Y2034D03*
X591Y2034D03*
G54D17*
X791Y2133D02*
X790Y2060D01*
D02*
X1290Y2034D02*
X1290Y2135D01*
D02*
X1690Y2034D02*
X1290Y2034D01*
D02*
X1290Y2135D02*
X791Y2133D01*
D02*
X1762Y2034D02*
X1690Y2034D01*
D02*
X261Y1634D02*
X191Y1634D01*
D02*
X891Y1935D02*
X891Y2008D01*
D02*
X791Y1935D02*
X891Y1935D01*
D02*
X191Y1935D02*
X791Y1935D01*
D02*
X191Y1634D02*
X191Y1935D01*
D02*
X390Y133D02*
X389Y1734D01*
D02*
X2591Y133D02*
X390Y133D01*
D02*
X389Y1734D02*
X321Y1734D01*
D02*
X2591Y301D02*
X2591Y133D01*
D02*
X2490Y235D02*
X489Y235D01*
D02*
X489Y235D02*
X489Y1835D01*
D02*
X489Y1835D02*
X321Y1834D01*
D02*
X2491Y301D02*
X2490Y235D01*
D02*
X2190Y933D02*
X2190Y2032D01*
D02*
X2190Y2032D02*
X2181Y2007D01*
D02*
X2024Y933D02*
X2190Y933D01*
D02*
X2290Y2132D02*
X1791Y2135D01*
D02*
X2290Y1432D02*
X2290Y2132D01*
D02*
X1791Y2135D02*
X1791Y2063D01*
D02*
X2290Y833D02*
X2290Y1432D01*
D02*
X2024Y833D02*
X2290Y833D01*
D02*
X1189Y1134D02*
X1956Y1133D01*
D02*
X1191Y1935D02*
X1189Y1134D01*
D02*
X1191Y2034D02*
X1191Y1935D01*
D02*
X916Y2034D02*
X1191Y2034D01*
G04 End of Copper0*
M02*